<svg width="39" height="29" viewBox="0 0 39 29" fill="none" xmlns="http://www.w3.org/2000/svg">
<path d="M16.1113 17.7627C15.2031 18.7783 13.4209 19.8086 10.7646 20.8535C9.84668 23.4805 8.61621 25.4141 7.07324 26.6543C5.54004 27.9043 4.08984 28.5293 2.72266 28.5293C2.09766 28.5293 1.58984 28.3291 1.19922 27.9287C0.818359 27.5381 0.62793 27.0205 0.62793 26.376C0.62793 24.2275 2.71777 22.4258 6.89746 20.9707C7.63965 16.5664 8.18652 13.5586 8.53809 11.9473C8.88965 10.3262 9.29492 9.05176 9.75391 8.12402C10.2129 7.18652 10.9209 6.10742 11.8779 4.88672C12.835 3.65625 13.4355 2.8457 13.6797 2.45508C12.7324 2.96289 11.9316 3.2168 11.2773 3.2168C10.8867 3.2168 10.4131 3.09961 9.85645 2.86523C9.2998 2.63086 8.80176 2.51367 8.3623 2.51367C7.62988 2.51367 6.98047 2.79199 6.41406 3.34863C5.85742 3.89551 5.5791 4.52051 5.5791 5.22363C5.5791 5.8291 5.82812 6.32715 6.32617 6.71777C6.82422 7.09863 7.07324 7.36719 7.07324 7.52344C7.07324 7.66992 6.85352 7.9873 6.41406 8.47559C5.97461 8.96387 5.62305 9.20801 5.35938 9.20801C5.10547 9.20801 4.7832 8.96875 4.39258 8.49023C4.00195 8.00195 3.80664 7.3916 3.80664 6.65918C3.80664 5.18457 4.50488 3.72949 5.90137 2.29395C7.29785 0.848633 8.70898 0.125977 10.1348 0.125977C10.6035 0.125977 11.1113 0.257812 11.6582 0.521484C12.2051 0.775391 12.6689 0.902344 13.0498 0.902344C13.5771 0.902344 14.1436 0.643555 14.749 0.125977C15.5107 0.213867 15.8916 0.360352 15.8916 0.56543C15.8916 0.702148 15.667 1.12695 15.2178 1.83984C14.7783 2.54297 14.3779 3.44629 14.0166 4.5498C13.665 5.64355 13.3623 7.0791 13.1084 8.85645L12.8887 10.3213C12.2637 14.7354 11.7168 17.7627 11.248 19.4033C13.3477 18.6904 14.9688 17.582 16.1113 16.0781V17.7627ZM6.56055 22.2891C3.36719 23.4219 1.77051 24.7402 1.77051 26.2441C1.77051 26.5469 1.86328 26.7959 2.04883 26.9912C2.24414 27.1963 2.48828 27.2988 2.78125 27.2988C3.43555 27.2988 4.11426 26.9033 4.81738 26.1123C5.53027 25.3311 6.11133 24.0566 6.56055 22.2891ZM29.2656 17.7627C28.5918 18.4854 27.7715 18.8467 26.8047 18.8467C26.043 18.8467 25.2324 18.4854 24.373 17.7627C23.3281 18.9639 22.4004 19.8525 21.5898 20.4287C20.7891 21.0049 19.915 21.293 18.9678 21.293C18.1182 21.293 17.4053 20.9414 16.8291 20.2383C16.2529 19.5352 15.9648 18.6611 15.9648 17.6162C15.9648 15.5752 16.5605 12.8262 17.752 9.36914C18.9434 5.90234 20.1104 3.28027 21.2529 1.50293C22.542 1.09277 23.6748 0.760742 24.6514 0.506836C25.6377 0.25293 26.2041 0.125977 26.3506 0.125977C26.6338 0.125977 26.8779 0.316406 27.083 0.697266C27.2979 1.06836 27.4053 1.51758 27.4053 2.04492C27.4053 3.13867 26.9512 4.42285 26.043 5.89746C25.1348 7.3623 23.958 8.81738 22.5127 10.2627L20.5938 12.1816C19.9883 14.3105 19.6855 15.8779 19.6855 16.8838C19.6855 17.4404 19.8125 17.8848 20.0664 18.2168C20.3203 18.5488 20.6523 18.7148 21.0625 18.7148C21.541 18.7148 21.9707 18.5635 22.3516 18.2607C22.7422 17.958 23.1768 17.4893 23.6553 16.8545C23.167 16.0146 22.9229 15.1553 22.9229 14.2764C22.9229 12.8604 23.3037 11.5518 24.0654 10.3506C24.8369 9.14941 25.6572 8.54883 26.5264 8.54883C26.8682 8.54883 27.1465 8.7002 27.3613 9.00293C27.5859 9.30566 27.6982 9.70605 27.6982 10.2041C27.6982 11.8057 26.7998 13.9932 25.0029 16.7666C25.54 17.4307 26.1504 17.7627 26.834 17.7627C27.2637 17.7627 27.6348 17.665 27.9473 17.4697C28.2598 17.2646 28.6992 16.8008 29.2656 16.0781V17.7627ZM21.3115 9.92578C22.8936 8.37305 24.0947 6.94238 24.915 5.63379C25.7354 4.31543 26.1455 3.31934 26.1455 2.64551C26.1455 2.37207 26.082 2.14746 25.9551 1.97168C25.8379 1.7959 25.6914 1.70801 25.5156 1.70801C24.373 1.70801 22.9717 4.44727 21.3115 9.92578Z" fill="black"/>
<path d="M38.5869 15.8975C37.8708 18.2249 37.2116 19.7549 36.6094 20.4873C36.0234 21.2035 35.1364 21.5615 33.9482 21.5615C32.4834 21.5615 31.0674 21.0407 29.7002 19.999C30.5628 18.6644 31.3766 16.752 32.1416 14.2617C33.1833 15.1406 33.9482 15.7021 34.4365 15.9463C34.9248 16.1742 35.5107 16.2881 36.1943 16.2881C36.7803 16.2881 37.5778 16.1579 38.5869 15.8975Z" fill="#ED0909" fill-opacity="0.72"/>
</svg>
